<svg width="394" height="235" viewBox="0 0 394 235" fill="none" xmlns="http://www.w3.org/2000/svg">
<path d="M224.631 72.8047C202.131 63.3047 91.0359 112.337 0.130869 116.305C0.130869 116.305 0.630855 134.805 0.130869 157.805C-0.369117 180.805 0.0364885 193.054 11.1309 211.805C11.3981 212.143 -1.86909 197.805 12.1309 213.305C26.1309 228.805 36.6309 232.305 62.1309 233.805C87.6309 235.305 327.631 233.805 327.631 233.805C375.29 232.394 391.968 215.721 393.131 168.805C394.294 121.888 393.131 57.3047 393.131 57.3047C338.131 116.305 351.131 80.8047 303.631 102.305C256.131 123.805 247.131 82.3047 224.631 72.8047Z" fill="white"/>
<path d="M298.404 13.3408C308.528 16.5996 313.106 23.4696 312.313 34.0388C311.345 45.2245 305.535 52.1825 285.902 65.3059C269.175 76.5797 261.956 84.7708 261.956 93.0499C261.868 97.9822 266.006 101.505 271.816 101.505C277.01 101.505 281.412 99.4795 288.895 93.7546C298.227 86.5323 307.735 80.6312 312.754 78.8696C319.356 76.5797 330.713 76.8439 337.404 79.3981C347.44 83.3615 353.867 90.4076 356.068 100.008L357.124 104.764L350.698 104.324C344.975 103.971 343.743 104.148 338.725 106.526C335.643 108.023 329.393 111.898 324.815 115.245C303.598 130.57 293.65 134.27 278.595 132.332C270.056 131.275 263.629 128.369 257.994 123.084C252.008 117.447 249.631 111.81 249.631 102.826C249.631 96.6611 249.983 95.0757 252.448 89.9673C256.322 81.9523 264.685 74.2897 282.117 62.5755C289.864 57.4671 297.963 51.4779 300.076 49.3641C309.584 39.9399 311.345 27.8734 304.214 21.5319C300.252 18.0969 296.819 17.3923 292.593 19.1539C284.406 22.5008 280.004 30.3396 279.211 42.4941C278.771 49.9806 277.715 53.5036 275.162 55.6175C273.929 56.6744 273.841 56.4982 274.281 54.1202C274.633 52.2706 274.105 49.6283 272.521 45.7529C267.502 33.0699 270.936 21.5319 281.5 15.807C286.166 13.2527 294.442 12.0197 298.404 13.3408Z" fill="#60A0FF"/>
<path d="M81.4809 0.536129C71.3566 3.79496 66.7787 10.6649 67.571 21.2341C68.5394 32.4198 74.3499 39.3778 93.9822 52.5012C110.709 63.775 117.928 71.9661 117.928 80.2453C118.016 85.1775 113.879 88.7006 108.068 88.7006C102.874 88.7006 98.4721 86.6748 90.9889 80.9499C81.657 73.7276 72.1489 67.8265 67.1308 66.065C60.528 63.775 49.1712 64.0392 42.4804 66.5934C32.4441 70.5568 26.0174 77.603 23.8165 87.2033L22.76 91.9594L29.1867 91.519C34.9092 91.1667 36.1417 91.3429 41.1598 93.7209C44.2411 95.2182 50.4918 99.0936 55.0697 102.44C76.2867 117.766 86.2349 121.465 101.289 119.527C109.829 118.47 116.256 115.564 121.89 110.279C127.877 104.642 130.254 99.0055 130.254 90.0217C130.254 83.8564 129.901 82.271 127.436 77.1626C123.563 69.1476 115.199 61.485 97.7678 49.7708C90.0205 44.6624 81.9211 38.6732 79.8082 36.5594C70.3001 27.1352 68.5394 15.0687 75.6704 8.72723C79.6321 5.29225 83.0655 4.58764 87.2913 6.34917C95.4788 9.69607 99.8807 17.5349 100.673 29.6894C101.113 37.1759 102.17 40.699 104.723 42.8128C105.955 43.8697 106.043 43.6936 105.603 41.3155C105.251 39.4659 105.779 36.8236 107.364 32.9482C112.382 20.2652 108.949 8.72723 98.384 3.00226C93.7181 0.44805 85.4426 -0.785016 81.4809 0.536129Z" fill="#FF7E7E"/>
<path d="M0 159.5H110V234.5H0V159.5Z" fill="white"/>
<path d="M283 159H393V234H283V159Z" fill="white"/>
</svg>
