<svg width="253" height="17" fill="none" xmlns="http://www.w3.org/2000/svg">
<path d="M1.5 10C1.5 10 4.17465 13.2778 6.5 14.5C14.6529 18.7852 17.2895 2 26.5 2C35.7105 2 37.2895 14.5 46.5 14.5C55.7105 14.5 57.2895 2 66.5 2C75.7105 2 77.2895 14.5 86.5 14.5C95.7105 14.5 97.2895 2 106.5 2C115.71 2 117.29 14.5 126.5 14.5C135.71 14.5 137.29 2 146.5 2C155.71 2 157.29 14.5 166.5 14.5C175.71 14.5 177.29 2 186.5 2C195.71 2 197.29 14.5 206.5 14.5C215.71 14.5 217.29 2 226.5 2C235.71 2 238.347 18.7852 246.5 14.5C248.825 13.2778 251.5 10 251.5 10" stroke="#CECECE" stroke-width="3" stroke-linecap="round"/>
</svg>
