<svg width="269" height="188" viewBox="0 0 269 188" fill="none" xmlns="http://www.w3.org/2000/svg">
<g filter="url(#filter0_d_347_4990)">
<path d="M176.169 0.804199C191.355 5.69244 198.222 15.9974 197.034 31.8511C195.581 48.6297 186.865 59.0667 157.417 78.7518C132.326 95.6625 121.498 107.949 121.498 120.368C121.365 127.766 127.572 133.051 136.288 133.051C144.079 133.051 150.682 130.012 161.907 121.425C175.905 110.591 190.167 101.74 197.694 99.0974C207.598 95.6625 224.633 96.0588 234.669 99.8901C249.724 105.835 259.364 116.404 262.665 130.805L264.25 137.939L254.61 137.279C246.026 136.75 244.177 137.014 236.65 140.581C232.028 142.827 222.652 148.64 215.785 153.661C183.96 176.649 169.038 182.197 146.456 179.291C133.647 177.706 124.007 173.346 115.555 165.419C106.575 156.964 103.01 148.508 103.01 135.033C103.01 125.785 103.538 123.407 107.235 115.744C113.046 103.721 125.591 92.2275 151.738 74.6562C163.359 66.9936 175.508 58.0098 178.678 54.8391C192.94 40.7028 195.581 22.6031 184.884 13.0909C178.942 7.93839 173.792 6.88147 167.453 9.52376C155.172 14.5441 148.569 26.3023 147.38 44.5341C146.72 55.7639 145.136 61.0484 141.306 64.2192C139.457 65.8046 139.325 65.5403 139.985 61.9732C140.514 59.1988 139.721 55.2354 137.344 49.4224C129.817 30.3979 134.967 13.0909 150.814 4.5034C157.813 0.672073 170.226 -1.17752 176.169 0.804199Z" fill="#60A0FF"/>
<path d="M92.3313 0.804199C77.1449 5.69244 70.278 15.9974 71.4665 31.8511C72.9191 48.6297 81.6348 59.0667 111.083 78.7518C136.174 95.6625 147.002 107.949 147.002 120.368C147.135 127.766 140.928 133.051 132.212 133.051C124.421 133.051 117.818 130.012 106.593 121.425C92.5954 110.591 78.3334 101.74 70.8062 99.0974C60.902 95.6625 43.8668 96.0588 33.8305 99.8901C18.7762 105.835 9.13607 116.404 5.83467 130.805L4.25 137.939L13.8901 137.279C22.4737 136.75 24.3225 137.014 31.8497 140.581C36.4716 142.827 45.8476 148.64 52.7145 153.661C84.54 176.649 99.4623 182.197 122.044 179.291C134.853 177.706 144.493 173.346 152.945 165.419C161.925 156.964 165.49 148.508 165.49 135.033C165.49 125.785 164.962 123.407 161.265 115.744C155.454 103.721 142.909 92.2275 116.762 74.6562C105.141 66.9936 92.9916 58.0098 89.8223 54.8391C75.5602 40.7028 72.9191 22.6031 83.6156 13.0909C89.5581 7.93839 94.7083 6.88147 101.047 9.52376C113.328 14.5441 119.931 26.3023 121.12 44.5341C121.78 55.7639 123.364 61.0484 127.194 64.2192C129.043 65.8046 129.175 65.5403 128.515 61.9732C127.986 59.1988 128.779 55.2354 131.156 49.4224C138.683 30.3979 133.533 13.0909 117.686 4.5034C110.687 0.672073 98.2738 -1.17752 92.3313 0.804199Z" fill="#FF7E7E"/>
<path d="M149.198 119.157C149.315 120.39 149.25 121.362 149.25 122.599C149.25 123.217 149.261 123.402 149.198 123.907C149.136 124.412 148.919 124.99 148.75 125.49C148.581 125.99 147.477 128.026 146.552 129.07C145.749 129.975 145.427 130.547 144.481 131.371C144.272 131.553 143.684 131.99 143.142 132.351C142.325 132.897 141.687 133.024 140.719 133.407C139.565 133.862 138.929 134.155 137.691 134.462C136.319 134.803 135.503 134.99 134.057 134.99C132.611 134.99 131.795 134.803 130.423 134.462C129.185 134.155 128.549 133.862 127.395 133.407C126.427 133.024 125.876 132.814 124.972 132.351C124.231 131.971 123.802 131.763 123.155 131.296C121.953 130.427 121.544 129.75 120.733 128.657C119.859 127.481 119.415 126.768 118.85 125.49C118.58 124.88 118.39 124.292 118.35 123.9C118.31 123.508 118.271 122.941 118.31 122.323C118.388 121.076 118.75 119.157 118.75 119.157C118.75 119.157 119.174 117.212 119.521 115.99C119.879 114.732 120.204 114.047 120.733 112.823C121.548 110.934 122.051 109.844 123.25 108.073C123.66 107.467 125.299 105.465 126.789 103.851C128.15 102.377 128.929 101.557 130.423 100.157C131.782 98.8829 134.25 96.8201 134.25 96.8201C134.25 96.8201 137.109 99.2115 138.519 100.609C139.3 101.383 140.953 103.426 141.75 104.49C142.548 105.554 144 107.49 144 107.49C144 107.49 144.864 108.599 145.499 109.657C145.99 110.475 146.585 111.309 146.992 112.135C147.587 113.342 148.235 114.732 148.593 115.99C148.94 117.212 149.08 117.911 149.198 119.157Z" fill="#FF4C00"/>
</g>
<defs>
<filter id="filter0_d_347_4990" x="0.25" y="0" width="268" height="188" filterUnits="userSpaceOnUse" color-interpolation-filters="sRGB">
<feFlood flood-opacity="0" result="BackgroundImageFix"/>
<feColorMatrix in="SourceAlpha" type="matrix" values="0 0 0 0 0 0 0 0 0 0 0 0 0 0 0 0 0 0 127 0" result="hardAlpha"/>
<feOffset dy="4"/>
<feGaussianBlur stdDeviation="2"/>
<feComposite in2="hardAlpha" operator="out"/>
<feColorMatrix type="matrix" values="0 0 0 0 0 0 0 0 0 0 0 0 0 0 0 0 0 0 0.25 0"/>
<feBlend mode="normal" in2="BackgroundImageFix" result="effect1_dropShadow_347_4990"/>
<feBlend mode="normal" in="SourceGraphic" in2="effect1_dropShadow_347_4990" result="shape"/>
</filter>
</defs>
</svg>
