<svg width="32" height="30" viewBox="0 0 32 30" fill="#A3A3A3" xmlns="http://www.w3.org/2000/svg">
<path d="M18.9091 29.909L14.8364 24.8181H7.27273C6.46941 24.8181 5.81818 24.1669 5.81818 23.3635V7.51273C5.81818 6.70941 6.46941 6.05818 7.27273 6.05818H30.5455C31.3488 6.05818 32 6.70941 32 7.51273V23.3635C32 24.1669 31.3488 24.8181 30.5455 24.8181H22.9818L18.9091 29.909ZM21.5836 21.909H29.0909V8.96727H8.72727V21.909H14.8364H16.2346L18.9091 25.2521L21.5836 21.909ZM1.45455 0.0908203H26.1818V2.99991H2.90909V18.9999H0V1.54537C0 0.742049 0.651229 0.0908203 1.45455 0.0908203Z"/>
</svg>
