<svg width="24" height="24" viewBox="0 0 24 24" fill="none" xmlns="http://www.w3.org/2000/svg">
<path d="M4.10019 8.6201C3.95423 7.96262 3.97665 7.27894 4.16535 6.63244C4.35405 5.98593 4.70294 5.39754 5.17966 4.92182C5.65638 4.4461 6.2455 4.09844 6.8924 3.91109C7.5393 3.72374 8.22303 3.70276 8.88019 3.8501C9.2419 3.2844 9.7402 2.81886 10.3291 2.49638C10.9181 2.17391 11.5787 2.00488 12.2502 2.00488C12.9216 2.00488 13.5823 2.17391 14.1712 2.49638C14.7602 2.81886 15.2585 3.2844 15.6202 3.8501C16.2784 3.70212 16.9633 3.72301 17.6112 3.91081C18.2591 4.09862 18.849 4.44724 19.326 4.92425C19.8031 5.40126 20.1517 5.99117 20.3395 6.6391C20.5273 7.28703 20.5482 7.97193 20.4002 8.6301C20.9659 8.99181 21.4314 9.4901 21.7539 10.079C22.0764 10.668 22.2454 11.3286 22.2454 12.0001C22.2454 12.6715 22.0764 13.3322 21.7539 13.9211C21.4314 14.5101 20.9659 15.0084 20.4002 15.3701C20.5475 16.0273 20.5265 16.711 20.3392 17.3579C20.1518 18.0048 19.8042 18.5939 19.3285 19.0706C18.8527 19.5473 18.2644 19.8962 17.6179 20.0849C16.9713 20.2736 16.2877 20.2961 15.6302 20.1501C15.269 20.718 14.7703 21.1855 14.1803 21.5094C13.5904 21.8333 12.9282 22.0032 12.2552 22.0032C11.5822 22.0032 10.92 21.8333 10.3301 21.5094C9.74011 21.1855 9.24143 20.718 8.88019 20.1501C8.22303 20.2974 7.5393 20.2765 6.8924 20.0891C6.2455 19.9018 5.65638 19.5541 5.17966 19.0784C4.70294 18.6027 4.35405 18.0143 4.16535 17.3678C3.97665 16.7213 3.95423 16.0376 4.10019 15.3801C3.53015 15.0193 3.06061 14.5203 2.73524 13.9293C2.40988 13.3384 2.23926 12.6747 2.23926 12.0001C2.23926 11.3255 2.40988 10.6618 2.73524 10.0709C3.06061 9.47992 3.53015 8.98085 4.10019 8.6201Z" fill="#60A0FF" stroke="black" stroke-width="0.5" stroke-linecap="round" stroke-linejoin="round"/>
<path d="M9.25 12L11.25 14L15.25 10" stroke="black" stroke-linecap="round" stroke-linejoin="round"/>
</svg>
