<svg width="24" height="24" viewBox="0 0 24 24" fill="none" xmlns="http://www.w3.org/2000/svg">
<path d="M20.1712 12.4126C20.1813 12.3889 20.1865 12.3634 20.1865 12.3376C20.1865 12.3119 20.1813 12.2863 20.1712 12.2626C19.8112 11.5839 16.9837 6.43888 11.9999 6.31513C7.01617 6.19138 4.12492 11.4789 3.71992 12.2439C3.70412 12.2712 3.6958 12.3023 3.6958 12.3339C3.6958 12.3655 3.70412 12.3965 3.71992 12.4239C4.16242 13.1476 7.25617 18.0189 11.1299 18.3751C15.4012 18.7501 18.8662 15.7501 20.1712 12.4126Z" stroke="#A3A3A3"/>
<path d="M11.8876 14.8763C13.3187 14.8763 14.4789 13.7162 14.4789 12.2851C14.4789 10.854 13.3187 9.69385 11.8876 9.69385C10.4565 9.69385 9.29639 10.854 9.29639 12.2851C9.29639 13.7162 10.4565 14.8763 11.8876 14.8763Z" stroke="#A3A3A3"/>
</svg>
