<svg width="24" height="24" viewBox="0 0 24 24" fill="none" xmlns="http://www.w3.org/2000/svg">
<path d="M7.72866 16.4477C7.96116 16.7065 9.70866 17.6102 9.70866 17.6102C10.24 17.8365 10.8027 17.9806 11.3774 18.0377C15.6487 18.4127 19.1099 15.4127 20.4149 12.079C20.426 12.0549 20.4318 12.0286 20.4318 12.0021C20.4318 11.9756 20.426 11.9493 20.4149 11.9252C20.0587 11.2502 17.2499 6.10147 12.2474 5.97772C7.24491 5.85397 4.37241 11.1415 3.96741 11.9065C3.95164 11.9345 3.94336 11.9662 3.94336 11.9983C3.94336 12.0305 3.95164 12.0622 3.96741 12.0902C4.78518 13.41 5.76534 14.622 6.88491 15.6977" stroke="#A3A3A3"/>
<path d="M12.1313 14.5424C13.5624 14.5424 14.7225 13.3822 14.7225 11.9511C14.7225 10.52 13.5624 9.35986 12.1313 9.35986C10.7002 9.35986 9.54004 10.52 9.54004 11.9511C9.54004 13.3822 10.7002 14.5424 12.1313 14.5424Z" stroke="#A3A3A3"/>
<path d="M20.4298 3.75L4.02734 20.1525" stroke="#A3A3A3"/>
</svg>
