<svg width="32" height="32" viewBox="0 0 32 32" fill="#A3A3A3" xmlns="http://www.w3.org/2000/svg">
<path fill-rule="evenodd" clip-rule="evenodd" d="M15.8415 5.12218C17.9274 2.63452 19.3883 0.483508 22.6019 0.0634355C28.6357 -0.729042 34.1852 6.33771 31.1383 13.2942C30.2712 15.2754 28.5055 17.632 26.5524 19.9439C24.4092 22.4822 22.0368 24.9699 20.3753 26.8557L15.8441 31.9979L12.0993 27.8746C7.59407 22.9112 0.24772 16.6638 0.00553209 8.92369C-0.163739 3.50148 3.57584 0.0276847 7.87793 0.0902487C11.7217 0.149833 13.3389 2.33659 15.8415 5.12218ZM10.2373 15.3022C9.94824 14.9835 9.7972 14.5604 9.78939 14.1314C9.78157 13.7054 9.91699 13.2734 10.1956 12.9427C10.4743 12.612 10.8441 12.4392 11.2165 12.4303C11.5889 12.4213 11.9665 12.5762 12.2555 12.895L14.4743 15.3261L19.7503 9.71915C19.7633 9.69829 19.7816 9.68042 19.7998 9.66552C20.0967 9.37356 20.4691 9.23949 20.8337 9.26034L20.8519 9.26332C21.2191 9.29014 21.5758 9.47783 21.8415 9.81448C22.1097 10.1571 22.2321 10.5921 22.2113 11.0181L22.2087 11.0389C22.1852 11.4501 22.0264 11.8523 21.7425 12.1532L15.4665 18.8446C15.4561 18.8595 15.443 18.8743 15.43 18.8863C15.1488 19.1693 14.7946 19.3063 14.443 19.3004C14.0889 19.2944 13.7347 19.1395 13.4587 18.8356L10.2373 15.3022Z"/>
</svg>
