<svg width="240" height="163" viewBox="0 0 240 163" fill="none" xmlns="http://www.w3.org/2000/svg">
<g filter="url(#filter0_d_861_1067)">
<path fill-rule="evenodd" clip-rule="evenodd" d="M82.7569 0.692505C69.2643 4.90182 63.1633 13.7755 64.2192 27.4274C65.5098 41.8755 73.2534 50.863 99.4172 67.814C105.471 71.7688 110.591 75.4299 114.837 78.8794C105.047 86.6145 99.2997 93.0484 95.9986 99.6683C95.2461 101.18 94.6413 102.453 94.156 103.613C82.1348 94.7181 70.0923 87.5317 63.6326 85.3339C54.8331 82.376 39.698 82.7173 30.7812 86.0165C17.4059 91.1359 8.84108 100.237 5.90792 112.638L4.5 118.781L13.0648 118.212C20.6911 117.757 22.3336 117.985 29.0213 121.056C33.1277 122.99 41.4579 127.996 47.5589 132.319C75.8346 152.114 89.0925 156.892 109.155 154.389C113.081 153.919 116.672 153.163 120 152.096C123.328 153.163 126.919 153.919 130.845 154.389C150.908 156.892 164.165 152.114 192.441 132.319C198.542 127.996 206.872 122.99 210.979 121.056C217.666 117.985 219.309 117.757 226.935 118.212L235.5 118.781L234.092 112.638C231.159 100.237 222.594 91.1359 209.219 86.0165C200.302 82.7173 185.167 82.376 176.367 85.3339C169.908 87.5317 157.865 94.7181 145.844 103.613C145.359 102.453 144.754 101.18 144.001 99.6683C140.7 93.0484 134.953 86.6145 125.163 78.8794C129.409 75.4299 134.529 71.7688 140.583 67.814C166.747 50.863 174.49 41.8755 175.781 27.4274C176.837 13.7755 170.736 4.90182 157.243 0.692505C151.963 -1.01397 140.935 0.578737 134.716 3.87793C126.227 8.33654 121.193 15.5248 120 24.121C118.807 15.5248 113.773 8.33654 105.284 3.87793C99.0653 0.578737 88.0366 -1.01397 82.7569 0.692505ZM135.538 64.2873C129.604 68.1522 124.459 71.6756 120 74.9524C115.541 71.6756 110.396 68.1522 104.462 64.2873C94.1375 57.6889 83.3435 49.9529 80.5277 47.2225C67.8564 35.0496 65.5098 19.4638 75.0133 11.2727C80.293 6.83583 84.8687 5.92571 90.5004 8.20101C101.412 12.5241 107.278 22.6492 108.334 38.3488C108.921 48.0189 110.329 52.5695 113.731 55.2999C115.374 56.665 115.491 56.4375 114.904 53.3658C114.435 50.9768 115.139 47.5638 117.251 42.5581C118.666 39.0915 119.577 35.691 120 32.4139C120.423 35.691 121.334 39.0915 122.749 42.5581C124.861 47.5638 125.565 50.9768 125.096 53.3658C124.509 56.4375 124.626 56.665 126.269 55.2999C129.671 52.5695 131.079 48.0189 131.666 38.3488C132.722 22.6492 138.588 12.5241 149.5 8.20101C155.131 5.92571 159.707 6.83583 164.987 11.2727C174.49 19.4638 172.144 35.0496 159.472 47.2225C156.657 49.9529 145.862 57.6889 135.538 64.2873Z" fill="#FF4C00"/>
<path d="M157.243 0.692507C170.736 4.90183 176.837 13.7755 175.781 27.4274C174.49 41.8755 166.747 50.863 140.583 67.814C118.291 82.376 108.67 92.9562 108.67 103.65C108.553 110.021 114.067 114.572 121.811 114.572C128.733 114.572 134.599 111.955 144.572 104.56C157.008 95.2315 169.68 87.6092 176.367 85.3339C185.167 82.376 200.302 82.7173 209.219 86.0165C222.594 91.1359 231.159 100.237 234.092 112.638L235.5 118.781L226.935 118.212C219.309 117.757 217.666 117.985 210.979 121.056C206.872 122.99 198.542 127.996 192.441 132.319C164.165 152.114 150.908 156.892 130.845 154.389C119.464 153.024 110.899 149.27 103.39 142.444C95.412 135.163 92.2442 127.882 92.2442 116.278C92.2442 108.314 92.7135 106.267 95.9986 99.6683C101.161 89.3157 112.307 79.4181 135.538 64.2873C145.862 57.6889 156.657 49.9529 159.472 47.2225C172.144 35.0496 174.49 19.4638 164.987 11.2727C159.707 6.83583 155.131 5.92571 149.5 8.20102C138.588 12.5241 132.722 22.6492 131.666 38.3488C131.079 48.0189 129.671 52.5695 126.269 55.2999C124.626 56.665 124.509 56.4375 125.096 53.3659C125.565 50.9768 124.861 47.5638 122.749 42.5581C116.062 26.1759 120.637 11.2727 134.716 3.87793C140.935 0.578732 151.963 -1.01397 157.243 0.692507Z" fill="#60A0FF"/>
<path d="M82.7569 0.692507C69.2643 4.90183 63.1633 13.7755 64.2192 27.4274C65.5098 41.8755 73.2534 50.863 99.4172 67.814C121.709 82.376 131.33 92.9562 131.33 103.65C131.447 110.021 125.933 114.572 118.189 114.572C111.267 114.572 105.401 111.955 95.4281 104.56C82.9915 95.2315 70.3202 87.6092 63.6326 85.3339C54.8331 82.376 39.698 82.7173 30.7812 86.0165C17.4059 91.1359 8.84108 100.237 5.90792 112.638L4.5 118.781L13.0648 118.212C20.6911 117.757 22.3336 117.985 29.0213 121.056C33.1277 122.99 41.4579 127.996 47.5589 132.319C75.8346 152.114 89.0925 156.892 109.155 154.389C120.536 153.024 129.101 149.27 136.61 142.444C144.588 135.163 147.756 127.882 147.756 116.278C147.756 108.314 147.286 106.267 144.001 99.6683C138.839 89.3157 127.693 79.4181 104.462 64.2873C94.1375 57.6889 83.3435 49.9529 80.5276 47.2225C67.8564 35.0496 65.5098 19.4638 75.0133 11.2727C80.293 6.83583 84.8687 5.92571 90.5004 8.20102C101.412 12.5241 107.278 22.6492 108.334 38.3488C108.921 48.0189 110.329 52.5695 113.731 55.2999C115.374 56.665 115.491 56.4375 114.904 53.3659C114.435 50.9768 115.139 47.5638 117.251 42.5581C123.938 26.1759 119.363 11.2727 105.284 3.87793C99.0653 0.578732 88.0366 -1.01397 82.7569 0.692507Z" fill="#FF7E7E"/>
</g>
<defs>
<filter id="filter0_d_861_1067" x="0.5" y="0" width="239" height="163" filterUnits="userSpaceOnUse" color-interpolation-filters="sRGB">
<feFlood flood-opacity="0" result="BackgroundImageFix"/>
<feColorMatrix in="SourceAlpha" type="matrix" values="0 0 0 0 0 0 0 0 0 0 0 0 0 0 0 0 0 0 127 0" result="hardAlpha"/>
<feOffset dy="4"/>
<feGaussianBlur stdDeviation="2"/>
<feComposite in2="hardAlpha" operator="out"/>
<feColorMatrix type="matrix" values="0 0 0 0 0 0 0 0 0 0 0 0 0 0 0 0 0 0 0.25 0"/>
<feBlend mode="normal" in2="BackgroundImageFix" result="effect1_dropShadow_861_1067"/>
<feBlend mode="normal" in="SourceGraphic" in2="effect1_dropShadow_861_1067" result="shape"/>
</filter>
</defs>
</svg>
