<svg width="19" height="19" viewBox="0 0 19 19" fill="none" xmlns="http://www.w3.org/2000/svg">
<path d="M16.53 13.2379C16.1419 14.0999 15.9549 14.4852 15.4557 15.246C14.7568 16.3091 13.771 17.6366 12.5532 17.6451C11.4689 17.6549 11.1891 16.9377 9.71676 16.9504C8.24582 16.9574 7.93926 17.6591 6.85364 17.6479C5.63442 17.6366 4.70207 16.4413 4.00317 15.3796C2.04848 12.4026 1.84176 8.91227 3.04973 7.05602C3.90473 5.73977 5.25614 4.96633 6.52598 4.96633C7.81973 4.96633 8.63254 5.67648 9.70129 5.67648C10.7391 5.67648 11.3705 4.96492 12.8668 4.96492C13.9974 4.96492 15.1927 5.58086 16.0477 6.64398C13.2521 8.1768 13.7063 12.1691 16.53 13.2379ZM11.7305 3.77664C12.2747 3.07773 12.6882 2.09195 12.5377 1.08789C11.6504 1.14836 10.6125 1.71508 10.0064 2.44914C9.4566 3.11852 9.00098 4.11133 9.17817 5.0718C10.1471 5.10273 11.1497 4.52477 11.7305 3.77664Z" fill="black"/>
</svg>
