<svg width="18" height="19" viewBox="0 0 18 19" fill="none" xmlns="http://www.w3.org/2000/svg">
<path fill-rule="evenodd" clip-rule="evenodd" d="M0.75 5.22778C0.75 3.98514 1.75736 2.97778 3 2.97778H15C16.2427 2.97778 17.25 3.98515 17.25 5.22778V14.2278C17.25 15.4704 16.2427 16.4778 15 16.4778H3C1.75737 16.4778 0.75 15.4705 0.75 14.2278V5.22778ZM3 4.47778C2.58579 4.47778 2.25 4.81357 2.25 5.22778V14.2278C2.25 14.642 2.58578 14.9778 3 14.9778H15C15.4142 14.9778 15.75 14.642 15.75 14.2278V5.22778C15.75 4.81356 15.4142 4.47778 15 4.47778H3Z" fill="#414040"/>
<path fill-rule="evenodd" clip-rule="evenodd" d="M0.867088 5.57563C1.08924 5.22603 1.55274 5.12272 1.90234 5.34487L8.62748 9.61837C8.73926 9.68796 8.86838 9.72488 9.0001 9.72488C9.13181 9.72488 9.26093 9.68796 9.37271 9.61837L16.0978 5.34487C16.4475 5.12272 16.9109 5.22603 17.1331 5.57563C17.3553 5.92523 17.2519 6.38873 16.9023 6.61089L10.1708 10.8885C9.81991 11.1083 9.41416 11.2249 9.0001 11.2249C8.58603 11.2249 8.18028 11.1083 7.82941 10.8884L7.82534 10.8859L1.09785 6.61089C0.748249 6.38873 0.644933 5.92523 0.867088 5.57563Z" fill="#414040"/>
</svg>
