<svg width="33" height="32" viewBox="0 0 33 32" fill="#A3A3A3" xmlns="http://www.w3.org/2000/svg">
<path d="M16.6855 0C25.522 0 32.6855 7.16344 32.6855 16C32.6855 24.8365 25.522 32 16.6855 32C7.84899 32 0.685547 24.8365 0.685547 16C0.685547 7.16344 7.84899 0 16.6855 0ZM16.9411 22.4C13.6844 22.4 10.7525 23.7899 8.70596 26.009C10.8942 27.7558 13.6679 28.8 16.6855 28.8C19.8367 28.8 22.7219 27.6613 24.9521 25.773C22.9185 23.6918 20.0806 22.4 16.9411 22.4ZM16.6855 3.2C9.6163 3.2 3.88555 8.93075 3.88555 16C3.88555 18.897 4.84795 21.5691 6.47046 23.7142C9.09577 20.9346 12.8159 19.2 16.9411 19.2C20.9161 19.2 24.5148 20.8106 27.1204 23.4147C28.6097 21.3227 29.4855 18.7637 29.4855 16C29.4855 8.93075 23.7548 3.2 16.6855 3.2ZM16.6855 4.8C20.2201 4.8 23.0855 7.66538 23.0855 11.2C23.0855 14.7346 20.2201 17.6 16.6855 17.6C13.1509 17.6 10.2855 14.7346 10.2855 11.2C10.2855 7.66538 13.1509 4.8 16.6855 4.8ZM16.6855 8C14.9182 8 13.4855 9.43269 13.4855 11.2C13.4855 12.9674 14.9182 14.4 16.6855 14.4C18.4529 14.4 19.8855 12.9674 19.8855 11.2C19.8855 9.43269 18.4529 8 16.6855 8Z" />
</svg>
