<svg width="1105" height="234" viewBox="0 0 1105 234" fill="none" xmlns="http://www.w3.org/2000/svg">
<path d="M0 233.5H748H915H1002H1105V73.3472C1105 73.3472 1047.37 131.83 1002 128C965.627 124.93 957.478 86.6611 921.5 80.5C885.19 74.2821 865.464 104.245 829 99C793.88 93.9488 784.904 68.4782 753 69C725.469 69.4502 701.446 87.7839 686.83 93.3472C610.734 122.311 609.807 90.4484 574.83 73.3472C539.852 56.2461 492.025 96.554 437.83 105.848C405.794 111.341 387.808 118.124 355.33 116.848C279.582 113.87 281.386 68.6859 221.33 98.8477C198.332 110.398 207.364 110.886 182.33 116.848C150.827 124.349 112.545 116.91 90.3296 93.3472C77.4285 79.6636 54.5302 112.201 36.8296 105.847C22.1179 100.567 0 52 0 52V233.5Z" fill="white"/>
<path d="M435.481 0.536129C425.357 3.79496 420.779 10.6649 421.571 21.2341C422.54 32.4198 428.35 39.3778 447.982 52.5012C464.71 63.775 471.929 71.9661 471.929 80.2453C472.017 85.1775 467.879 88.7006 462.068 88.7006C456.874 88.7006 452.472 86.6748 444.989 80.9499C435.657 73.7276 426.149 67.8265 421.131 66.065C414.528 63.775 403.171 64.0392 396.481 66.5934C386.444 70.5568 380.018 77.603 377.817 87.2033L376.76 91.9594L383.187 91.519C388.909 91.1667 390.142 91.3429 395.16 93.7209C398.241 95.2182 404.492 99.0936 409.07 102.44C430.287 117.766 440.235 121.465 455.29 119.527C463.829 118.47 470.256 115.564 475.89 110.279C481.877 104.642 484.254 99.0055 484.254 90.0217C484.254 83.8564 483.902 82.271 481.437 77.1626C477.563 69.1476 469.199 61.485 451.768 49.7708C444.021 44.6624 435.921 38.6732 433.808 36.5594C424.3 27.1352 422.54 15.0687 429.671 8.72723C433.632 5.29225 437.066 4.58764 441.292 6.34917C449.479 9.69607 453.881 17.5349 454.673 29.6894C455.113 37.1759 456.17 40.699 458.723 42.8128C459.955 43.8697 460.044 43.6936 459.603 41.3155C459.251 39.4659 459.779 36.8236 461.364 32.9482C466.382 20.2652 462.949 8.72723 452.384 3.00226C447.718 0.44805 439.443 -0.785016 435.481 0.536129Z" fill="#FF7E7E"/>
<path d="M652.404 13.3408C662.528 16.5996 667.106 23.4696 666.314 34.0388C665.345 45.2245 659.535 52.1825 639.902 65.3059C623.175 76.5797 615.956 84.7708 615.956 93.0499C615.868 97.9822 620.006 101.505 625.816 101.505C631.011 101.505 635.412 99.4795 642.896 93.7546C652.228 86.5323 661.736 80.6312 666.754 78.8696C673.357 76.5797 684.713 76.8439 691.404 79.3981C701.44 83.3615 707.867 90.4076 710.068 100.008L711.125 104.764L704.698 104.324C698.975 103.971 697.743 104.148 692.725 106.526C689.643 108.023 683.393 111.898 678.815 115.245C657.598 130.57 647.65 134.27 632.595 132.332C624.056 131.275 617.629 128.369 611.995 123.084C606.008 117.447 603.631 111.81 603.631 102.826C603.631 96.6611 603.983 95.0757 606.448 89.9673C610.322 81.9523 618.685 74.2897 636.117 62.5755C643.864 57.4671 651.963 51.4779 654.076 49.3641C663.584 39.9399 665.345 27.8734 658.214 21.5319C654.252 18.0969 650.819 17.3923 646.593 19.1539C638.406 22.5008 634.004 30.3396 633.212 42.4941C632.771 49.9806 631.715 53.5036 629.162 55.6175C627.929 56.6744 627.841 56.4982 628.281 54.1202C628.634 52.2706 628.105 49.6283 626.521 45.7529C621.503 33.0699 624.936 21.5319 635.5 15.807C640.166 13.2527 648.442 12.0197 652.404 13.3408Z" fill="#60A0FF"/>
</svg>