<svg width="33" height="32" viewBox="0 0 33 32" fill="#A3A3A3" xmlns="http://www.w3.org/2000/svg">
<path d="M11.8212 4.25634L15.6476 0.429961C16.2208 -0.14332 17.1503 -0.14332 17.7236 0.429961L21.5499 4.25634H26.9613C27.772 4.25634 28.4292 4.91357 28.4292 5.7243V11.1356L32.2556 14.962C32.8289 15.5353 32.8289 16.4648 32.2556 17.038L28.4292 20.8644V26.2757C28.4292 27.0865 27.772 27.7437 26.9613 27.7437H21.5499L17.7236 31.5701C17.1503 32.1433 16.2208 32.1433 15.6476 31.5701L11.8212 27.7437H6.40984C5.59912 27.7437 4.94189 27.0865 4.94189 26.2757V20.8644L1.11551 17.038C0.542227 16.4648 0.542227 15.5353 1.11551 14.962L4.94189 11.1356V5.7243C4.94189 4.91357 5.59912 4.25634 6.40984 4.25634H11.8212ZM7.8778 7.19225V12.3517L4.22952 16L7.8778 19.6483V24.8078H13.0373L16.6856 28.4561L20.3339 24.8078H25.4933V19.6483L29.1416 16L25.4933 12.3517V7.19225H20.3339L16.6856 3.54397L13.0373 7.19225H7.8778ZM16.6856 21.8719C13.4426 21.8719 10.8137 19.2429 10.8137 16C10.8137 12.7571 13.4426 10.1282 16.6856 10.1282C19.9284 10.1282 22.5574 12.7571 22.5574 16C22.5574 19.2429 19.9284 21.8719 16.6856 21.8719ZM16.6856 18.9359C18.3071 18.9359 19.6215 17.6215 19.6215 16C19.6215 14.3785 18.3071 13.0641 16.6856 13.0641C15.0641 13.0641 13.7497 14.3785 13.7497 16C13.7497 17.6215 15.0641 18.9359 16.6856 18.9359Z" />
</svg>
