<svg width="70" height="45" viewBox="0 0 70 45" fill="none" xmlns="http://www.w3.org/2000/svg">
<path d="M46.0781 0.544071C50.1484 1.74733 51.9888 4.28393 51.6703 8.18639C51.281 12.3165 48.945 14.8856 41.0523 19.7312C34.3275 23.8938 31.4252 26.9182 31.4252 29.9751C31.3898 31.7963 33.0533 33.0971 35.3893 33.0971C37.4775 33.0971 39.2472 32.3491 42.2556 30.2353C46.0073 27.5686 49.8298 25.3897 51.8473 24.7393C54.5018 23.8938 59.0675 23.9914 61.7574 24.9345C65.7923 26.3979 68.376 28.9995 69.2608 32.5443L69.6855 34.3004L67.1018 34.1378C64.8013 34.0077 64.3057 34.0727 62.2883 34.9508C61.0495 35.5036 58.5366 36.9345 56.6962 38.1703C48.1663 43.8289 44.1669 45.1947 38.1146 44.4793C34.6814 44.089 32.0977 43.0159 29.8325 41.0646C27.4258 38.9833 26.4702 36.902 26.4702 33.5849C26.4702 31.3085 26.6117 30.7231 27.6028 28.8369C29.1601 25.8775 32.5224 23.0483 39.5303 18.723C42.645 16.8368 45.9012 14.6255 46.7506 13.845C50.5731 10.3653 51.281 5.90995 48.4141 3.56848C46.8214 2.30018 45.441 2.04002 43.7422 2.69043C40.4506 3.9262 38.6809 6.82053 38.3624 11.3084C38.1854 14.0726 37.7607 15.3734 36.7343 16.1539C36.2388 16.5442 36.2034 16.4791 36.3803 15.6011C36.5219 14.9181 36.3095 13.9425 35.6725 12.5116C33.655 7.82867 35.0354 3.56848 39.2826 1.45465C41.1584 0.511551 44.4854 0.0562668 46.0781 0.544071Z" fill="#60A0FF"/>
<path d="M23.6079 0.544071C19.5377 1.74733 17.6972 4.28393 18.0157 8.18639C18.4051 12.3165 20.741 14.8856 28.6338 19.7312C35.3585 23.8938 38.2608 26.9182 38.2608 29.9751C38.2962 31.7963 36.6327 33.0971 34.2967 33.0971C32.2085 33.0971 30.4388 32.3491 27.4304 30.2353C23.6787 27.5686 19.8562 25.3897 17.8388 24.7393C15.1843 23.8938 10.6185 23.9914 7.92862 24.9345C3.89377 26.3979 1.31005 28.9995 0.42521 32.5443L0.000488281 34.3004L2.58421 34.1378C4.88478 34.0077 5.38029 34.0727 7.39772 34.9508C8.63649 35.5036 11.1494 36.9345 12.9899 38.1703C21.5197 43.8289 25.5192 45.1947 31.5714 44.4793C35.0046 44.089 37.5883 43.0159 39.8535 41.0646C42.2603 38.9833 43.2159 36.902 43.2159 33.5849C43.2159 31.3085 43.0743 30.7231 42.0833 28.8369C40.526 25.8775 37.1636 23.0483 30.1557 18.723C27.0411 16.8368 23.7849 14.6255 22.9354 13.845C19.1129 10.3653 18.4051 5.90995 21.2719 3.56848C22.8646 2.30018 24.245 2.04002 25.9439 2.69043C29.2355 3.9262 31.0051 6.82053 31.3237 11.3084C31.5006 14.0726 31.9254 15.3734 32.9518 16.1539C33.4473 16.5442 33.4827 16.4791 33.3057 15.6011C33.1641 14.9181 33.3765 13.9425 34.0136 12.5116C36.031 7.82867 34.6507 3.56848 30.4035 1.45465C28.5276 0.511551 25.2006 0.0562668 23.6079 0.544071Z" fill="#FF4C00"/>
</svg>
