<svg width="70" height="46" viewBox="0 0 70 46" xmlns="http://www.w3.org/2000/svg">
<path d="M46.0771 1.04407C50.1474 2.24733 51.9879 4.78393 51.6693 8.68639C51.28 12.8165 48.944 15.3856 41.0513 20.2312C34.3265 24.3938 31.4243 27.4182 31.4243 30.4751C31.3889 32.2963 33.0524 33.5971 35.3883 33.5971C37.4765 33.5971 39.2462 32.8491 42.2547 30.7353C46.0064 28.0686 49.8289 25.8897 51.8463 25.2393C54.5008 24.3938 59.0665 24.4914 61.7564 25.4345C65.7913 26.8979 68.375 29.4995 69.2598 33.0443L69.6846 34.8004L67.1008 34.6378C64.8003 34.5077 64.3048 34.5727 62.2873 35.4508C61.0486 36.0036 58.5356 37.4345 56.6952 38.6703C48.1654 44.3289 44.1659 45.6947 38.1136 44.9793C34.6805 44.589 32.0967 43.5159 29.8316 41.5646C27.4248 39.4833 26.4692 37.402 26.4692 34.0849C26.4692 31.8085 26.6108 31.2231 27.6018 29.3369C29.1591 26.3775 32.5215 23.5483 39.5294 19.223C42.644 17.3368 45.9002 15.1255 46.7496 14.345C50.5721 10.8653 51.28 6.40995 48.4131 4.06848C46.8204 2.80018 45.4401 2.54002 43.7412 3.19043C40.4496 4.4262 38.6799 7.32053 38.3614 11.8084C38.1844 14.5726 37.7597 15.8734 36.7333 16.6539C36.2378 17.0442 36.2024 16.9791 36.3793 16.1011C36.5209 15.4181 36.3086 14.4425 35.6715 13.0116C33.6541 8.32867 35.0344 4.06848 39.2816 1.95465C41.1575 1.01155 44.4844 0.556267 46.0771 1.04407Z" fill="#A3A3A3"/>
<path d="M23.6074 1.04407C19.5372 2.24733 17.6967 4.78393 18.0153 8.68639C18.4046 12.8165 20.7406 15.3856 28.6333 20.2312C35.358 24.3938 38.2603 27.4182 38.2603 30.4751C38.2957 32.2963 36.6322 33.5971 34.2962 33.5971C32.208 33.5971 30.4384 32.8491 27.4299 30.7353C23.6782 28.0686 19.8557 25.8897 17.8383 25.2393C15.1838 24.3938 10.618 24.4914 7.92813 25.4345C3.89328 26.8979 1.30956 29.4995 0.424721 33.0443L0 34.8004L2.58372 34.6378C4.88429 34.5077 5.3798 34.5727 7.39723 35.4508C8.636 36.0036 11.1489 37.4345 12.9894 38.6703C21.5192 44.3289 25.5187 45.6947 31.5709 44.9793C35.0041 44.589 37.5878 43.5159 39.853 41.5646C42.2598 39.4833 43.2154 37.402 43.2154 34.0849C43.2154 31.8085 43.0738 31.2231 42.0828 29.3369C40.5255 26.3775 37.1631 23.5483 30.1552 19.223C27.0406 17.3368 23.7844 15.1255 22.9349 14.345C19.1125 10.8653 18.4046 6.40995 21.2715 4.06848C22.8642 2.80018 24.2445 2.54002 25.9434 3.19043C29.235 4.4262 31.0047 7.32053 31.3232 11.8084C31.5002 14.5726 31.9249 15.8734 32.9513 16.6539C33.4468 17.0442 33.4822 16.9791 33.3052 16.1011C33.1637 15.4181 33.376 14.4425 34.0131 13.0116C36.0305 8.32867 34.6502 4.06848 30.403 1.95465C28.5271 1.01155 25.2001 0.556267 23.6074 1.04407Z" fill="#6C6C6C"/>
</svg>
