<svg width="231" height="155" viewBox="0 0 231 155" fill="none" xmlns="http://www.w3.org/2000/svg">
<path d="M152.743 0.692507C166.236 4.90183 172.337 13.7755 171.281 27.4274C169.99 41.8755 162.247 50.863 136.083 67.814C113.791 82.376 104.17 92.9562 104.17 103.65C104.053 110.021 109.567 114.572 117.311 114.572C124.233 114.572 130.099 111.955 140.072 104.56C152.508 95.2315 165.18 87.6092 171.867 85.3339C180.667 82.376 195.802 82.7173 204.719 86.0165C218.094 91.1359 226.659 100.237 229.592 112.638L231 118.781L222.435 118.212C214.809 117.757 213.166 117.985 206.479 121.056C202.372 122.99 194.042 127.996 187.941 132.319C159.665 152.114 146.408 156.892 126.345 154.389C114.964 153.024 106.399 149.27 98.8902 142.444C90.912 135.163 87.7442 127.882 87.7442 116.278C87.7442 108.314 88.2135 106.267 91.4986 99.6683C96.661 89.3157 107.807 79.4181 131.038 64.2873C141.362 57.6889 152.157 49.9529 154.972 47.2225C167.644 35.0496 169.99 19.4638 160.487 11.2727C155.207 6.83583 150.631 5.92571 145 8.20102C134.088 12.5241 128.222 22.6492 127.166 38.3488C126.579 48.0189 125.171 52.5695 121.769 55.2999C120.126 56.665 120.009 56.4375 120.596 53.3659C121.065 50.9768 120.361 47.5638 118.249 42.5581C111.562 26.1759 116.137 11.2727 130.216 3.87793C136.435 0.578732 147.463 -1.01397 152.743 0.692507Z" fill="#60A0FF"/>
<path d="M78.2569 0.692507C64.7643 4.90183 58.6633 13.7755 59.7192 27.4274C61.0098 41.8755 68.7534 50.863 94.9172 67.814C117.209 82.376 126.83 92.9562 126.83 103.65C126.947 110.021 121.433 114.572 113.689 114.572C106.767 114.572 100.901 111.955 90.9281 104.56C78.4915 95.2315 65.8202 87.6092 59.1326 85.3339C50.3331 82.376 35.198 82.7173 26.2812 86.0165C12.9059 91.1359 4.34108 100.237 1.40792 112.638L0 118.781L8.56484 118.212C16.1911 117.757 17.8336 117.985 24.5213 121.056C28.6277 122.99 36.9579 127.996 43.0589 132.319C71.3346 152.114 84.5925 156.892 104.655 154.389C116.036 153.024 124.601 149.27 132.11 142.444C140.088 135.163 143.256 127.882 143.256 116.278C143.256 108.314 142.786 106.267 139.501 99.6683C134.339 89.3157 123.193 79.4181 99.9623 64.2873C89.6375 57.6889 78.8435 49.9529 76.0276 47.2225C63.3564 35.0496 61.0098 19.4638 70.5133 11.2727C75.793 6.83583 80.3687 5.92571 86.0004 8.20102C96.9118 12.5241 102.778 22.6492 103.834 38.3488C104.421 48.0189 105.829 52.5695 109.231 55.2999C110.874 56.665 110.991 56.4375 110.404 53.3659C109.935 50.9768 110.639 47.5638 112.751 42.5581C119.438 26.1759 114.863 11.2727 100.784 3.87793C94.5653 0.578732 83.5366 -1.01397 78.2569 0.692507Z" fill="#FF7E7E"/>
</svg>
