<svg width="18" height="19" viewBox="0 0 18 19" fill="none" xmlns="http://www.w3.org/2000/svg">
<g clip-path="url(#clip0_1331_2305)">
<g clip-path="url(#clip1_1331_2305)">
<path d="M9 18.7278C13.9706 18.7278 18 14.6983 18 9.72778C18 4.75722 13.9706 0.727783 9 0.727783C4.02944 0.727783 0 4.75722 0 9.72778C0 14.6983 4.02944 18.7278 9 18.7278Z" fill="url(#paint0_linear_1331_2305)"/>
<path d="M3.35163 10.1682C4.40373 9.58863 5.57816 9.10495 6.67548 8.6188C8.56331 7.82253 10.4586 7.04005 12.3731 6.31158C12.7455 6.18745 13.4148 6.0661 13.4805 6.6181C13.4445 7.39945 13.2967 8.17623 13.1953 8.953C12.938 10.6612 12.6405 12.3636 12.3504 14.0661C12.2505 14.6332 11.5401 14.9268 11.0855 14.5639C9.99303 13.8259 8.89218 13.0953 7.81368 12.3402C7.46043 11.9812 7.78803 11.4657 8.10348 11.2093C9.00326 10.3226 9.95748 9.5692 10.8102 8.63665C11.0403 8.0812 10.3606 8.54935 10.1364 8.69283C8.90463 9.54168 7.70298 10.4424 6.40428 11.1884C5.74091 11.5536 4.96773 11.2415 4.30466 11.0376C3.71013 10.7916 2.83893 10.5435 3.35156 10.1682L3.35163 10.1682Z" fill="white"/>
</g>
</g>
<defs>
<linearGradient id="paint0_linear_1331_2305" x1="12.0007" y1="3.72838" x2="7.50075" y2="14.2278" gradientUnits="userSpaceOnUse">
<stop stop-color="#37AEE2"/>
<stop offset="1" stop-color="#1E96C8"/>
</linearGradient>
<clipPath id="clip0_1331_2305">
<rect width="18" height="18" fill="white" transform="translate(0 0.727783)"/>
</clipPath>
<clipPath id="clip1_1331_2305">
<rect width="18" height="18" fill="white" transform="translate(0 0.727783)"/>
</clipPath>
</defs>
</svg>
