<svg width="18" height="19" viewBox="0 0 18 19" fill="none" xmlns="http://www.w3.org/2000/svg">
<g clip-path="url(#clip0_1331_2313)">
<path d="M9 0.727783C4.02975 0.727783 0 4.75753 0 9.72778C0 14.698 4.02975 18.7278 9 18.7278C13.9703 18.7278 18 14.698 18 9.72778C18 4.75753 13.9703 0.727783 9 0.727783ZM13.7708 12.703L12.3698 12.7225C12.3698 12.7225 12.0675 12.7818 11.6722 12.5088C11.148 12.1488 10.6538 11.212 10.2682 11.3335C9.8775 11.458 9.8895 12.301 9.8895 12.301C9.8895 12.301 9.8925 12.4495 9.80325 12.5463C9.7065 12.6505 9.51675 12.64 9.51675 12.64H8.889C8.889 12.64 7.5045 12.7548 6.28425 11.4828C4.95525 10.096 3.78075 7.35928 3.78075 7.35928C3.78075 7.35928 3.71175 7.18678 3.78525 7.09828C3.8685 7.00078 4.09275 6.99778 4.09275 6.99778L5.59275 6.99028C5.59275 6.99028 5.73375 7.01503 5.83575 7.09003C5.919 7.15153 5.96625 7.26703 5.96625 7.26703C5.96625 7.26703 6.2085 7.88128 6.53025 8.43778C7.15725 9.52228 7.44825 9.76003 7.66125 9.64378C7.97175 9.47428 7.87875 8.11078 7.87875 8.11078C7.87875 8.11078 7.88475 7.61578 7.72275 7.39528C7.59675 7.22353 7.35975 7.17253 7.25625 7.15978C7.1715 7.14853 7.3095 6.95203 7.4895 6.86353C7.7595 6.73153 8.2365 6.72403 8.79975 6.72928C9.2385 6.73378 9.36525 6.76078 9.53625 6.80278C10.0538 6.92803 9.87825 7.41103 9.87825 8.56978C9.87825 8.94103 9.8115 9.46303 10.0785 9.63478C10.194 9.70903 10.4753 9.64603 11.1765 8.45053C11.5103 7.88353 11.76 7.21753 11.76 7.21753C11.76 7.21753 11.8147 7.09903 11.8995 7.04803C11.9865 6.99553 12.1035 7.01203 12.1035 7.01203L13.6823 7.00228C13.6823 7.00228 14.1563 6.94528 14.2335 7.16053C14.3145 7.38553 14.0565 7.91128 13.4115 8.77153C12.3525 10.1845 12.2347 10.0533 13.1145 10.8708C13.9545 11.6515 14.1277 12.031 14.157 12.079C14.5042 12.6573 13.7708 12.703 13.7708 12.703Z" fill="#2BA3D6"/>
</g>
<defs>
<clipPath id="clip0_1331_2313">
<rect width="18" height="18" fill="white" transform="translate(0 0.727783)"/>
</clipPath>
</defs>
</svg>
