<svg width="232" height="155" viewBox="0 0 232 155" fill="none" xmlns="http://www.w3.org/2000/svg">
<path d="M153.243 0.692507C166.736 4.90183 172.837 13.7755 171.781 27.4274C170.49 41.8755 162.747 50.863 136.583 67.814C114.291 82.376 104.67 92.9562 104.67 103.65C104.553 110.021 110.067 114.572 117.811 114.572C124.733 114.572 130.599 111.955 140.572 104.56C153.008 95.2315 165.68 87.6092 172.367 85.3339C181.167 82.376 196.302 82.7173 205.219 86.0165C218.594 91.1359 227.159 100.237 230.092 112.638L231.5 118.781L222.935 118.212C215.309 117.757 213.666 117.985 206.979 121.056C202.872 122.99 194.542 127.996 188.441 132.319C160.165 152.114 146.908 156.892 126.845 154.389C115.464 153.024 106.899 149.27 99.3902 142.444C91.412 135.163 88.2442 127.882 88.2442 116.278C88.2442 108.314 88.7135 106.267 91.9986 99.6683C97.161 89.3157 108.307 79.4181 131.538 64.2873C141.862 57.6889 152.657 49.9529 155.472 47.2225C168.144 35.0496 170.49 19.4638 160.987 11.2727C155.707 6.83583 151.131 5.92571 145.5 8.20102C134.588 12.5241 128.722 22.6492 127.666 38.3488C127.079 48.0189 125.671 52.5695 122.269 55.2999C120.626 56.665 120.509 56.4375 121.096 53.3659C121.565 50.9768 120.861 47.5638 118.749 42.5581C112.062 26.1759 116.637 11.2727 130.716 3.87793C136.935 0.578732 147.963 -1.01397 153.243 0.692507Z" fill="#60A0FF"/>
<path d="M78.7569 0.692507C65.2643 4.90183 59.1633 13.7755 60.2192 27.4274C61.5098 41.8755 69.2534 50.863 95.4172 67.814C117.709 82.376 127.33 92.9562 127.33 103.65C127.447 110.021 121.933 114.572 114.189 114.572C107.267 114.572 101.401 111.955 91.4281 104.56C78.9915 95.2315 66.3202 87.6092 59.6326 85.3339C50.8331 82.376 35.698 82.7173 26.7812 86.0165C13.4059 91.1359 4.84108 100.237 1.90792 112.638L0.5 118.781L9.06484 118.212C16.6911 117.757 18.3336 117.985 25.0213 121.056C29.1277 122.99 37.4579 127.996 43.5589 132.319C71.8346 152.114 85.0925 156.892 105.155 154.389C116.536 153.024 125.101 149.27 132.61 142.444C140.588 135.163 143.756 127.882 143.756 116.278C143.756 108.314 143.286 106.267 140.001 99.6683C134.839 89.3157 123.693 79.4181 100.462 64.2873C90.1375 57.6889 79.3435 49.9529 76.5276 47.2225C63.8564 35.0496 61.5098 19.4638 71.0133 11.2727C76.293 6.83583 80.8687 5.92571 86.5004 8.20102C97.4118 12.5241 103.278 22.6492 104.334 38.3488C104.921 48.0189 106.329 52.5695 109.731 55.2999C111.374 56.665 111.491 56.4375 110.904 53.3659C110.435 50.9768 111.139 47.5638 113.251 42.5581C119.938 26.1759 115.363 11.2727 101.284 3.87793C95.0653 0.578732 84.0366 -1.01397 78.7569 0.692507Z" fill="#FF7E7E"/>
</svg>
